<?xml version="1.0" standalone="no"?>
<!DOCTYPE svg PUBLIC "-//W3C//DTD SVG 20010904//EN"
 "http://www.w3.org/TR/2001/REC-SVG-20010904/DTD/svg10.dtd">
<svg version="1.0" xmlns="http://www.w3.org/2000/svg"
 width="128.000000pt" height="128.000000pt" viewBox="0 0 128.000000 128.000000"
 preserveAspectRatio="xMidYMid meet">
<metadata>
Created by potrace 1.14, written by Peter Selinger 2001-2017
</metadata>
<g transform="translate(0.000000,128.000000) scale(0.100000,-0.100000)"
fill="#000000" stroke="none">
<path d="M212 1188 c-7 -7 -12 -40 -12 -80 0 -62 -2 -69 -23 -79 -26 -12 -57
-58 -57 -84 0 -31 31 -82 55 -93 l25 -12 0 -368 c0 -273 3 -371 12 -380 16
-16 200 -16 216 0 7 7 12 34 12 60 l0 48 68 0 c40 0 73 5 80 12 7 7 12 34 12
60 l0 48 68 0 c40 0 73 5 80 12 7 7 12 34 12 60 l0 48 68 0 c40 0 73 5 80 12
7 7 12 34 12 60 l0 48 68 0 c40 0 73 5 80 12 8 8 12 54 12 140 0 125 1 129 23
139 28 13 57 58 57 89 0 31 -29 76 -57 89 -21 10 -23 17 -23 79 0 40 -5 73
-12 80 -17 17 -839 17 -856 0z"/>
</g>
</svg>
